
<svg xmlns="http://www.w3.org/2000/svg" version="1.1" xmlns:xlink="http://www.w3.org/1999/xlink" preserveAspectRatio="none" x="0px" y="0px" width="800px" height="783px" viewBox="0 0 800 783">
<defs>
<g id="Layer0_0_FILL">
<path fill="#CCCC00" stroke="none" d="
M 655.6 332.35
Q 655.6 335.5 655.55 338.6 653.35 468.6 560.8 561.1 513.55 608.45 456.45 632.1
L 456.45 649.8 664 649.8 664 0 0 0 0 649.8 207.6 649.8 207.6 632.1
Q 150.5 608.45 103.2 561.1 11.5552734375 469.4552734375 8.6 341 8.569921875 339.8021484375 8.55 338.6 8.45 335.5 8.45 332.35 8.45 301.15 13.55 272.15 30.45 176.2 103.2 103.5 198 8.75 332.05 8.75 365.6 8.75 396.75 14.75 431.45 21.35 463.15 35.4 516.35 59 560.8 103.5 633.55 176.2 650.5 272.15 655.6 301.15 655.6 332.35 Z"/>
</g>
</defs>

<g transform="matrix( 1, 0, 0, 1, 0,0) ">
<use xlink:href="#Layer0_0_FILL"/>
</g>
</svg>
