
<svg xmlns="http://www.w3.org/2000/svg" version="1.1" xmlns:xlink="http://www.w3.org/1999/xlink" preserveAspectRatio="none" x="0px" y="0px" width="960px" height="901px" viewBox="0 0 960 901">
<defs>
<g id="Layer0_0_FILL">
<path fill="#0099CC" stroke="none" d="
M 863.75 408
Q 869.9 442.9744140625 869.9 480.5 869.9 642 755.7 756.25 698.75 813.25 629.95 841.8
L 629.95 901 960 901 960 0 0 0 0 901 330.05 901 330.05 841.8
Q 261.25 813.25 204.3 756.25 90.15 642 90.15 480.5 90.15 442.9744140625 96.3 408 116.665234375 292.4115234375 204.3 204.7 318.5 90.55 480 90.55 520.4859375 90.55 558 97.7 670.1283203125 119.1658203125 755.7 204.7 843.373046875 292.4115234375 863.75 408 Z"/>
</g>
</defs>

<g transform="matrix( 1, 0, 0, 1, 0,0) ">
<use xlink:href="#Layer0_0_FILL"/>
</g>
</svg>
