<?xml version="1.0" standalone="no"?>
<!DOCTYPE svg PUBLIC "-//W3C//DTD SVG 20010904//EN"
 "http://www.w3.org/TR/2001/REC-SVG-20010904/DTD/svg10.dtd">
<svg version="1.0" xmlns="http://www.w3.org/2000/svg"
 width="340.000000pt" height="340.000000pt" viewBox="0 0 340.000000 340.000000"
 preserveAspectRatio="xMidYMid meet">
<metadata>
Created by potrace 1.13, written by Peter Selinger 2001-2015
</metadata>
<g transform="translate(0.000000,340.000000) scale(0.100000,-0.100000)"
fill="#000000" stroke="none">
<path d="M1500 3141 c-317 -49 -581 -177 -809 -396 -191 -182 -325 -411 -396
-670 -28 -105 -55 -289 -55 -378 0 -89 34 -307 65 -412 34 -118 118 -291 196
-407 82 -120 257 -295 377 -377 115 -78 289 -162 407 -196 111 -32 317 -65
407 -65 37 0 118 7 180 15 343 47 614 181 853 420 239 239 373 510 420 853 19
142 19 216 0 345 -54 355 -183 619 -419 852 -243 241 -512 373 -854 420 -141
19 -226 18 -372 -4z m409 -57 c120 -17 303 -75 412 -129 635 -318 933 -1053
699 -1720 -161 -457 -547 -797 -1030 -906 -128 -29 -348 -36 -490 -15 -454 67
-848 353 -1055 765 -56 112 -112 292 -131 421 -21 143 -14 363 15 490 114 497
458 880 936 1039 205 68 426 87 644 55z"/>
</g>
</svg>
